<?xml version="1.0" encoding="utf-8"?>
<!-- Generator: Adobe Illustrator 26.3.1, SVG Export Plug-In . SVG Version: 6.00 Build 0)  -->
<svg version="1.1" id="Layer_1" xmlns="http://www.w3.org/2000/svg" xmlns:xlink="http://www.w3.org/1999/xlink" x="0px" y="0px"
	 viewBox="0 0 260.9 74" style="enable-background:new 0 0 260.9 74;" xml:space="preserve">
<g>
	<path d="M28.6,66.6c-12.4,0-21.2-8.7-21.2-21.2c0-12.5,8.8-21.3,21.2-21.3c12.5,0,21.3,8.8,21.3,21.3
		C49.9,57.9,41.2,66.6,28.6,66.6z M28.6,58.2c6.8,0,10.2-5.3,10.2-12.9c0-7.7-3.5-13-10.2-13c-6.7,0-10.1,5.3-10.1,13
		C18.5,52.9,22,58.2,28.6,58.2z"/>
	<path d="M84,35.9c-2.1-1.2-3.9-1.7-6.6-1.7c-5.7,0-9.5,4-9.5,11.3v19.9h-11V25.1h11v7.7c1.5-4.6,5.7-8.8,11.2-8.8
		c2.5,0,4.5,0.6,5.7,1.6L84,35.9z"/>
	<path d="M124.1,55.7c0,2.1,1.1,3.1,2.8,3.1c1.1,0,2.2-0.3,3.4-0.8v5.9c-1.7,1.4-3.9,2.6-7.6,2.6c-4.6,0-7.5-2.7-8.5-7
		c-2.3,4.7-7.8,7.1-13.7,7.1c-8.4,0-13.5-4.2-13.5-11.2c0-7.7,6.2-10.9,15.4-12.7l11.1-2.2v-0.9c0-4.5-2.4-7.2-7-7.2
		c-4.6,0-7,2.7-8,6.7l-10-0.9c1.4-8.2,7.7-14,18.4-14c10.4,0,17.3,4.9,17.3,15.5V55.7z M113.4,47l-7.6,1.6c-4.8,1-8.1,1.8-8.1,5.9
		c0,2.7,2.1,4.4,5.6,4.4c5.8,0,10.1-4.4,10.1-10.9V47z"/>
	<path d="M136.4,32.8h-5.8v-6.5l2.7-0.5c3.9-0.6,5-2.7,5.9-6.4l1.3-5.5h6.7v11.2h11v7.7h-11v19.9c0,3.5,1.6,5,4.8,5
		c2.2,0,4.5-0.8,6.9-1.9v7.2c-2.9,2.2-6.2,3.5-11.2,3.5c-6.2,0-11.4-2.7-11.4-11.3V32.8z"/>
	<path d="M203.4,52.3c-2.1,9-9.1,14.3-19.4,14.3c-12.4,0-21.4-8-21.4-20.7c0-12.7,9.1-21.8,21.1-21.8c13.2,0,19.9,9.1,19.9,20.1v3.9
		h-30.3c0.4,5.9,5,10.1,11,10.1c5.4,0,8.6-2.3,10.1-6.9L203.4,52.3z M193,41.2c-0.4-4.7-3.2-9.1-9.3-9.1c-6,0-9.1,4.1-10.1,9.1H193z
		"/>
	<path d="M221.7,65.5h-11V7.9h11v33.5l17.2-16.2h13.3l-17.7,16.2l18.4,24.1h-12.5l-13.9-18l-4.7,4.3V65.5z"/>
</g>
</svg>
